<?xml version="1.0" encoding="UTF-8" standalone="no"?>
<!DOCTYPE svg PUBLIC "-//W3C//DTD SVG 1.1//EN" "http://www.w3.org/Graphics/SVG/1.1/DTD/svg11.dtd">
<svg width="100%" height="100%" viewBox="0 0 800 800" version="1.1" xmlns="http://www.w3.org/2000/svg" xmlns:xlink="http://www.w3.org/1999/xlink" xml:space="preserve" xmlns:serif="http://www.serif.com/" style="fill-rule:evenodd;clip-rule:evenodd;stroke-linejoin:round;stroke-miterlimit:2;">
    <g transform="matrix(1,0,0,0.782564,-140,-49.3885)">
        <g id="Ebene1">
            <g transform="matrix(1,0,0,1.12612,0,-132.847)">
                <path d="M540,1053.36L478,746.308C489.941,674.032 490.876,413.887 508.591,313.27C508.591,313.27 486.822,278.166 474.42,242.559C492.185,229.735 509.681,216.565 524.737,202.982L555.263,202.982C570.319,216.565 587.815,229.735 605.58,242.559C593.178,278.166 571.409,313.27 571.409,313.27C589.124,413.887 590.059,674.032 602,746.308L540,1053.36Z" style="fill:rgb(227,227,227);"/>
            </g>
            <g transform="matrix(-1,0,0,1,1080,-1.42109e-14)">
                <path d="M353.602,95.142L173,180.673L255,242.01L194,293.124L540,1053.36C522.985,698.155 380.248,493.97 353.602,95.142Z" style="fill:rgb(227,227,227);"/>
            </g>
            <path d="M353.602,95.142L173,180.673L255,242.01L193.987,293.124L540,1053.36C522.985,698.155 380.248,493.97 353.602,95.142Z" style="fill:rgb(227,227,227);"/>
        </g>
    </g>
</svg>
